<?xml version="1.0" encoding="UTF-8"?>
<!DOCTYPE svg PUBLIC "-//W3C//DTD SVG 1.1//EN" "http://www.w3.org/Graphics/SVG/1.1/DTD/svg11.dtd">
<!-- Creator: CorelDRAW X7 -->
<svg xmlns="http://www.w3.org/2000/svg" xml:space="preserve" width="250px" height="55px" version="1.1" style="shape-rendering:geometricPrecision; text-rendering:geometricPrecision; image-rendering:optimizeQuality; fill-rule:evenodd; clip-rule:evenodd"
viewBox="0 0 250 55"
 xmlns:xlink="http://www.w3.org/1999/xlink">
 <defs>
  <style type="text/css">
   <![CDATA[
    .fil0 {fill:red}
    .fil2 {fill:#FEFEFE;fill-rule:nonzero}
    .fil1 {fill:black;fill-rule:nonzero}
   ]]>
  </style>
 </defs>
 <g id="Layer_x0020_1">
  <metadata id="CorelCorpID_0Corel-Layer"/>
  <rect class="fil0" width="250.001" height="55.0006"/>
  <g id="_2102438880432">
   <path class="fil1" d="M26 16l-9 0 0 -5c0,-2 0,-3 0,-3 0,-1 -1,-1 -1,-1 -1,0 -2,0 -2,1 0,0 0,1 0,3l0 15c0,2 0,3 0,4 0,0 1,0 2,0 0,0 1,0 1,0 0,-1 0,-2 0,-4l0 -4 9 0 0 1c0,4 0,6 -1,7 0,2 -1,3 -3,4 -2,1 -4,2 -6,2 -3,0 -5,-1 -7,-1 -1,-1 -2,-3 -3,-4 0,-2 -1,-4 -1,-8l0 -9c0,-3 0,-4 1,-6 0,-1 0,-2 1,-3 1,-1 2,-2 3,-3 2,0 4,-1 5,-1 3,0 5,1 7,2 1,1 2,2 3,3 1,2 1,4 1,7l0 3zm23 -14l0 33 -9 0 0 -14 -2 0 0 14 -9 0 0 -33 9 0 0 12 2 0 0 -12 9 0zm23 19c0,4 0,6 0,8 -1,1 -1,2 -2,3 -1,1 -2,2 -3,3 -2,1 -3,1 -5,1 -2,0 -4,0 -5,-1 -1,-1 -2,-1 -3,-3 -1,-1 -2,-2 -2,-3 0,-2 0,-4 0,-8l0 -5c0,-4 0,-6 0,-7 0,-2 1,-3 2,-4 0,-1 2,-2 3,-3 1,0 3,-1 5,-1 2,0 3,1 5,1 1,1 2,2 3,3 1,1 1,2 2,4 0,1 0,3 0,7l0 5zm-9 -10c0,-2 0,-3 0,-3 0,-1 -1,-1 -1,-1 -1,0 -1,0 -1,0 0,1 0,2 0,4l0 15c0,2 0,3 0,4 0,0 0,0 1,0 0,0 1,0 1,-1 0,0 0,-1 0,-3l0 -15zm32 -9l0 22c0,3 0,4 -1,5 0,1 0,3 -1,4 -1,1 -2,2 -3,2 -2,1 -3,1 -5,1 -2,0 -4,0 -5,-1 -2,-1 -3,-2 -4,-3 0,-1 -1,-2 -1,-3 0,-1 0,-4 0,-7l0 -20 9 0 0 25c0,1 0,2 0,3 0,0 0,0 1,0 0,0 1,0 1,0 0,-1 0,-2 0,-4l0 -24 9 0zm3 0l9 0c2,0 4,0 5,1 1,0 2,0 3,1 1,1 1,2 1,3 0,1 1,2 1,4l0 3c0,2 -1,4 -1,5 0,1 -1,1 -2,2 -2,1 -3,1 -5,1l-2 0 0 13 -9 0 0 -33zm9 6l0 8c0,0 0,0 0,0 1,0 2,0 2,0 0,-1 0,-2 0,-3l0 -3c0,-1 0,-2 0,-2 0,0 -1,0 -2,0zm27 -6l5 33 -9 0 0 -6 -3 0 -1 6 -9 0 4 -33 13 0zm-5 21c0,-3 0,-8 -1,-14 -1,7 -1,11 -2,14l3 0zm20 -21l0 27 5 0 0 6 -14 0 0 -33 9 0z"/>
   <path class="fil2" d="M179 2l5 33 -9 0 -1 -6 -3 0 0 6 -9 0 4 -33 13 0zm-5 21c0,-3 -1,-8 -1,-14 -1,7 -2,11 -2,14l3 0zm31 -21l0 22c0,3 0,4 -1,5 0,1 0,3 -1,4 -1,1 -2,2 -3,2 -2,1 -3,1 -5,1 -2,0 -4,0 -5,-1 -2,-1 -3,-2 -4,-3 0,-1 -1,-2 -1,-3 0,-1 0,-4 0,-7l0 -20 9 0 0 25c0,1 0,2 0,3 0,0 0,0 1,0 0,0 1,0 1,0 0,-1 0,-2 0,-4l0 -24 9 0zm20 0l0 7 -5 0 0 26 -8 0 0 -26 -5 0 0 -7 18 0zm22 19c0,4 0,6 0,8 0,1 -1,2 -2,3 -1,1 -2,2 -3,3 -1,1 -3,1 -5,1 -2,0 -3,0 -5,-1 -1,-1 -2,-1 -3,-3 -1,-1 -2,-2 -2,-3 0,-2 0,-4 0,-8l0 -5c0,-4 0,-6 0,-7 0,-2 1,-3 2,-4 1,-1 2,-2 3,-3 2,0 3,-1 5,-1 2,0 3,1 5,1 1,1 2,2 3,3 1,1 2,2 2,4 0,1 0,3 0,7l0 5zm-9 -10c0,-2 0,-3 0,-3 0,-1 0,-1 -1,-1 0,0 -1,0 -1,0 0,1 0,2 0,4l0 15c0,2 0,3 0,4 0,0 0,0 1,0 1,0 1,0 1,-1 0,0 0,-1 0,-3l0 -15z"/>
   <path class="fil2" d="M125 38l0 12 -2 0 0 -8 -1 8 -2 0 -1 -8 0 8 -3 0 0 -12 4 0c0,1 0,2 0,3l1 3 0 -6 4 0zm7 0l2 12 -3 0 0 -2 -2 0 0 2 -3 0 2 -12 4 0zm-2 8c0,-1 0,-3 0,-5 0,2 -1,4 -1,5l1 0zm4 -8l3 0c1,0 2,0 3,0 0,0 1,1 1,1 0,1 0,1 0,2 0,1 0,2 0,2 0,1 -1,1 -1,1 0,0 1,0 1,1 0,0 0,0 0,0 0,0 0,1 0,2l0 3 -2 0 0 -4c0,0 -1,-1 -1,-1 0,0 0,0 0,0l0 5 -4 0 0 -12zm4 2l0 3c0,0 0,0 0,0 0,0 1,-1 1,-1l0 -1c0,0 -1,0 -1,-1 0,0 0,0 0,0zm12 3l-3 0 0 -2c0,0 0,-1 0,-1 0,0 0,0 -1,0 0,0 0,0 0,0 0,0 0,1 0,1l0 6c0,1 0,1 0,1 0,0 0,0 0,0 0,0 1,0 1,0 0,0 0,0 0,-1l0 -2 3 0 0 1c0,1 0,2 0,3 0,0 -1,1 -1,1 -1,0 -2,0 -3,0 -1,0 -1,0 -2,0 -1,0 -1,-1 -1,-1 0,-1 0,-2 0,-3l0 -4c0,0 0,-1 0,-2 0,0 0,0 0,-1 0,0 1,0 1,-1 1,0 2,0 2,0 1,0 2,0 3,0 0,1 0,1 1,2 0,0 0,1 0,2l0 1zm6 -5l2 12 -3 0 0 -2 -1 0 0 2 -4 0 2 -12 4 0zm-1 8c0,-1 0,-3 -1,-5 0,2 0,4 0,5l1 0zm7 -8l2 0c1,0 2,0 3,0 0,1 1,1 1,1 0,0 1,1 1,1 0,1 0,1 0,2l0 5c0,1 0,1 0,2 -1,0 -1,0 -1,1 0,0 0,0 -1,0 0,0 -1,0 -2,0l-3 0 0 -12zm3 2l0 8c0,0 0,0 0,0 1,0 1,-1 1,-2l0 -4c0,-1 0,-1 0,-1 0,0 -1,-1 -1,-1 0,0 0,0 0,0zm5 -2l5 0 0 3 -2 0 0 2 2 0 0 2 -2 0 0 3 2 0 0 2 -5 0 0 -12zm16 5l-3 0 0 -2c0,0 0,-1 0,-1 0,0 0,0 0,0 -1,0 -1,0 -1,0 0,0 0,1 0,1l0 6c0,1 0,1 0,1 0,0 0,0 1,0 0,0 0,0 0,0 0,0 0,0 0,-1l0 -2 3 0 0 1c0,1 0,2 0,3 0,0 -1,1 -1,1 -1,0 -2,0 -2,0 -1,0 -2,0 -3,0 0,0 -1,-1 -1,-1 0,-1 0,-2 0,-3l0 -4c0,0 0,-1 0,-2 0,0 0,0 0,-1 1,0 1,0 2,-1 0,0 1,0 2,0 0,0 1,0 2,0 0,1 1,1 1,2 0,0 0,1 0,2l0 1zm9 2c0,1 -1,2 -1,3 0,0 0,1 0,1 0,1 -1,1 -1,1 -1,0 -1,0 -2,0 -1,0 -1,0 -2,0 0,0 -1,0 -1,-1 0,0 -1,-1 -1,-1 0,-1 0,-2 0,-3l0 -2c0,-1 0,-2 0,-2 0,-1 1,-1 1,-2 0,0 1,0 1,-1 1,0 1,0 2,0 1,0 1,0 2,0 0,0 1,1 1,1 0,1 0,1 0,2 0,0 1,1 1,2l0 2zm-4 -4c0,0 0,-1 0,-1 0,0 0,0 0,0 0,0 0,0 0,0 -1,0 -1,1 -1,1l0 6c0,1 0,1 1,1 0,0 0,0 0,0 0,0 0,0 0,0 0,0 0,0 0,-1l0 -6zm12 -3l0 12 -3 0 -2 -5 0 5 -2 0 0 -12 2 0 2 6 0 -6 3 0zm1 0l5 0 0 3 -2 0 0 2 2 0 0 2 -2 0 0 5 -3 0 0 -12zm9 0l0 12 -3 0 0 -12 3 0zm7 0l2 12 -4 0 0 -2 -1 0 0 2 -3 0 1 -12 5 0zm-2 8c0,-1 0,-3 0,-5 -1,2 -1,4 -1,5l1 0zm11 -8l0 12 -3 0 -1 -5 0 5 -3 0 0 -12 3 0 1 6 0 -6 3 0zm5 12l0 1c1,0 1,0 1,0 0,0 0,0 0,1 0,0 0,0 0,1 0,0 -1,0 -1,0 -1,0 -1,0 -2,-1l1 0c0,0 1,0 1,0 0,0 0,0 0,0 0,0 0,0 0,0 0,0 0,-1 0,-1 0,0 0,0 0,0l-1 0 0 -1c0,0 -1,0 -2,0 0,-1 0,-1 0,-2 -1,0 -1,-1 -1,-2l0 -4c0,0 0,-1 0,-2 0,0 1,0 1,-1 0,0 1,0 1,-1 1,0 1,0 2,0 1,0 2,0 2,0 1,1 1,1 1,2 1,0 1,1 1,2l0 1 -3 0 0 -2c0,0 0,-1 -1,-1 0,0 0,0 0,0 0,0 0,0 0,0 -1,0 -1,1 -1,1l0 6c0,1 0,1 1,1 0,0 0,0 0,0 0,0 0,0 0,0 1,0 1,0 1,-1l0 -2 3 0 0 1c0,1 0,2 -1,2 0,1 0,1 -1,2 0,0 -1,0 -2,0zm10 -12l2 12 -3 0 0 -2 -1 0 -1 2 -3 0 2 -12 4 0zm-1 8c-1,-1 -1,-3 -1,-5 0,2 0,4 -1,5l2 0z"/>
  </g>
 </g>
</svg>
