<?xml version="1.0" encoding="UTF-8"?>
<!DOCTYPE svg PUBLIC "-//W3C//DTD SVG 1.1//EN" "http://www.w3.org/Graphics/SVG/1.1/DTD/svg11.dtd">
<!-- Creator: CorelDRAW X7 -->
<svg xmlns="http://www.w3.org/2000/svg" xml:space="preserve" width="200px" height="200px" version="1.1" style="shape-rendering:geometricPrecision; text-rendering:geometricPrecision; image-rendering:optimizeQuality; fill-rule:evenodd; clip-rule:evenodd"
viewBox="0 0 200 200"
 xmlns:xlink="http://www.w3.org/1999/xlink">
 <defs>
  <style type="text/css">
   <![CDATA[
    .str2 {stroke:white;stroke-width:4.16696}
    .str0 {stroke:#373435;stroke-width:2.36222}
    .str1 {stroke:white;stroke-width:2.08348}
    .fil2 {fill:black}
    .fil1 {fill:red}
    .fil0 {fill:red}
    .fil3 {fill:black;fill-rule:nonzero}
    .fil4 {fill:red;fill-rule:nonzero}
   ]]>
  </style>
    <clipPath id="id0">
     <path d="M83 37c6,-2 15,-4 22,-4 8,0 18,2 24,4l0 15 0 0 0 25 0 7 -2 1 -1 -1c-3,-2 -7,-4 -13,-4l1 28c-1,12 13,15 13,23l1 9 0 14 0 0 0 3c0,1 -1,1 -1,1l-13 0c-2,1 -5,2 -8,2 -3,0 -6,-1 -8,-2l-12 0c-1,0 -2,0 -2,-1l0 -17 1 -10c0,-8 13,-10 12,-21l1 -29c-4,0 -9,1 -11,3 -1,1 -2,1 -3,1l-1 -1 0 -6 0 -25 0 0 0 -15z"/>
    </clipPath>
 </defs>
 <g id="Layer_x0020_1">
  <metadata id="CorelCorpID_0Corel-Layer"/>
  <rect class="fil0 str0" x="1312" y="160" width="210" height="205"/>
  <g id="_2044326697952">
   <path class="fil1 str1" d="M62 76c29,-16 61,-24 86,-23 -22,0 -50,8 -75,21 -43,24 -63,57 -43,74 19,17 69,11 112,-12 31,-17 50,-39 51,-56 1,19 -20,44 -55,63 -47,25 -102,31 -123,13 -21,-18 0,-54 47,-80z"/>
   <path class="fil2" d="M73 76c41,-23 90,-28 108,-11 19,16 0,48 -41,70 -15,8 -31,14 -46,18 14,-4 27,-9 40,-16 40,-22 58,-52 40,-68 -18,-16 -65,-11 -105,11 -18,10 -31,22 -39,33 8,-13 22,-26 43,-37z"/>
   <g style="clip-path:url(#id0)">
    <image x="83" y="33" width="45.9591" height="127.018" xlink:href="Choupal_logo_01_Images\Choupal_logo_01_ImgID1.png"/>
   </g>
   <path class="fil1" d="M128 141c-11,5 -23,9 -34,12 11,-3 23,-7 34,-13l0 1z"/>
   <path class="fil0" d="M84 156c14,-2 29,-7 44,-13l1 2 -1 3c-9,4 -17,8 -26,10l-3 1 -14 0c-1,-1 -2,-1 -1,-2l0 -1z"/>
   <path class="fil3 str1" d="M78 109l-14 0 0 -14c0,-5 0,-7 0,-8 -1,-1 -1,-2 -2,-2 -2,0 -2,1 -3,2 0,1 0,4 0,8l0 38c0,4 0,7 0,8 1,1 1,2 2,2 1,0 2,-1 2,-2 1,-1 1,-4 1,-9l0 -10 14 0 0 3c0,9 -1,15 -1,18 -1,4 -3,7 -6,9 -2,3 -5,5 -9,5 -4,0 -8,-2 -10,-4 -3,-2 -5,-5 -6,-9 -1,-4 -1,-10 -1,-18l0 -24c0,-6 0,-10 0,-13 1,-3 1,-6 3,-9 1,-3 3,-5 5,-6 3,-2 5,-3 8,-3 4,0 8,2 10,4 3,2 5,5 6,9 0,4 1,9 1,17l0 8z"/>
   <path class="fil4 str2" d="M155 46l8 81 -14 0 -1 -14 -5 0 -1 14 -14 0 7 -81 20 0zm-7 52c-1,-9 -2,-20 -2,-34 -2,16 -3,27 -3,34l5 0z"/>
   <path class="fil2" d="M181 65c19,16 0,48 -41,70 -15,8 -31,14 -46,18 14,-4 27,-9 40,-16 40,-22 58,-52 40,-68l7 -4z"/>
  </g>
 </g>
</svg>
