<?xml version="1.0" encoding="UTF-8"?>
<!DOCTYPE svg PUBLIC "-//W3C//DTD SVG 1.1//EN" "http://www.w3.org/Graphics/SVG/1.1/DTD/svg11.dtd">
<!-- Creator: CorelDRAW X7 -->
<svg xmlns="http://www.w3.org/2000/svg" xml:space="preserve" width="650px" height="150px" version="1.1" style="shape-rendering:geometricPrecision; text-rendering:geometricPrecision; image-rendering:optimizeQuality; fill-rule:evenodd; clip-rule:evenodd"
viewBox="0 0 650 150"
 xmlns:xlink="http://www.w3.org/1999/xlink">
 <defs>
  <style type="text/css">
   <![CDATA[
    .str1 {stroke:#FEFEFE;stroke-width:2.95276}
    .str0 {stroke:white;stroke-width:2.95276}
    .str2 {stroke:white;stroke-width:1.18111}
    .fil0 {fill:black;fill-rule:nonzero}
    .fil2 {fill:#666666;fill-rule:nonzero}
    .fil1 {fill:red;fill-rule:nonzero}
   ]]>
  </style>
 </defs>
 <g id="Layer_x0020_1">
  <metadata id="CorelCorpID_0Corel-Layer"/>
  <g id="_2009280655600">
   <g>
   </g>
   <path class="fil0 str0" d="M67 48l-22 0 0 -14c0,-5 -1,-7 -1,-8 -1,-2 -1,-2 -3,-2 -2,0 -3,1 -4,2 0,1 0,4 0,8l0 40c0,4 0,7 0,8 1,1 2,2 4,2 1,0 2,-1 3,-2 0,-1 1,-4 1,-9l0 -11 22 0 0 4c0,9 -1,15 -2,18 -1,4 -4,7 -8,10 -5,3 -10,4 -16,4 -6,0 -12,-1 -16,-3 -4,-3 -7,-6 -8,-10 -2,-4 -3,-10 -3,-19l0 -25c0,-6 1,-10 1,-14 1,-3 2,-6 4,-8 2,-3 5,-5 9,-7 3,-2 8,-3 12,-3 7,0 12,2 17,4 4,3 7,6 8,10 1,4 2,9 2,17l0 8zm59 -37l0 86 -22 0 0 -36 -7 0 0 36 -22 0 0 -86 22 0 0 31 7 0 0 -31 22 0zm59 50c0,9 0,15 0,18 -1,4 -2,7 -4,10 -2,3 -5,5 -9,7 -3,2 -8,2 -12,2 -5,0 -9,0 -13,-2 -3,-1 -6,-4 -8,-7 -3,-3 -4,-6 -4,-9 -1,-4 -1,-10 -1,-19l0 -14c0,-9 0,-15 1,-19 0,-3 1,-6 3,-9 3,-3 5,-6 9,-7 4,-2 8,-3 13,-3 4,0 8,1 12,3 4,1 7,3 9,6 2,3 3,7 4,10 0,4 0,10 0,19l0 14zm-22 -28c0,-4 0,-6 -1,-7 0,-2 -1,-2 -2,-2 -1,0 -2,0 -3,1 0,1 -1,4 -1,8l0 40c0,5 1,8 1,9 0,1 1,2 3,2 1,0 2,-1 2,-2 1,-1 1,-5 1,-10l0 -39zm81 -22l0 57c0,7 0,11 -1,14 0,2 -1,5 -3,8 -3,3 -5,5 -9,6 -3,2 -7,2 -12,2 -5,0 -9,-1 -13,-2 -4,-2 -7,-4 -9,-7 -2,-3 -3,-5 -3,-8 -1,-3 -1,-10 -1,-19l0 -51 22 0 0 64c0,4 1,6 1,7 0,1 1,2 3,2 1,0 2,-1 2,-2 1,-1 1,-4 1,-8l0 -63 22 0zm9 0l22 0c6,0 11,1 14,2 3,1 6,2 7,4 2,2 3,4 3,6 1,3 1,7 1,12l0 7c0,6 0,10 -1,12 -1,3 -3,5 -7,6 -3,1 -6,2 -11,2l-6 0 0 35 -22 0 0 -86zm22 15l0 21c0,1 1,1 1,1 2,0 4,-1 5,-2 0,-1 1,-3 1,-6l0 -7c0,-3 -1,-5 -2,-6 0,-1 -2,-1 -5,-1zm70 -15l13 86 -23 0 -1 -16 -8 0 -1 16 -23 0 11 -86 32 0zm-12 55c-1,-10 -2,-22 -3,-36 -2,17 -4,29 -4,36l7 0zm51 -55l0 68 13 0 0 18 -35 0 0 -86 22 0z"/>
   <g>
   </g>
   <path class="fil1 str1" d="M460 11l12 86 -22 0 -1 -16 -8 0 -2 16 -23 0 12 -86 32 0zm-12 55c-1,-10 -2,-22 -3,-36 -3,17 -4,29 -5,36l8 0zm79 -55l0 57c0,7 -1,11 -1,14 0,2 -2,5 -4,8 -2,3 -5,5 -8,6 -3,2 -7,2 -12,2 -5,0 -9,-1 -13,-2 -4,-2 -7,-4 -9,-7 -2,-3 -3,-5 -4,-8 0,-3 0,-10 0,-19l0 -51 22 0 0 64c0,4 0,6 1,7 0,1 1,2 2,2 2,0 2,-1 3,-2 0,-1 0,-4 0,-8l0 -63 23 0zm53 0l0 17 -13 0 0 69 -22 0 0 -69 -14 0 0 -17 49 0zm56 50c0,9 -1,15 -1,18 0,4 -2,7 -4,10 -2,3 -5,5 -8,7 -4,2 -8,2 -13,2 -5,0 -9,0 -12,-2 -4,-1 -7,-4 -9,-7 -2,-3 -4,-6 -4,-9 0,-4 -1,-10 -1,-19l0 -14c0,-9 1,-15 1,-19 0,-3 2,-6 4,-9 2,-3 5,-6 8,-7 4,-2 8,-3 13,-3 4,0 9,1 12,3 4,1 7,3 9,6 2,3 3,7 4,10 0,4 1,10 1,19l0 14zm-23 -28c0,-4 0,-6 0,-7 -1,-2 -2,-2 -3,-2 -1,0 -2,0 -3,1 0,1 0,4 0,8l0 40c0,5 0,8 0,9 0,1 1,2 3,2 1,0 2,-1 3,-2 0,-1 0,-5 0,-10l0 -39z"/>
   <g>
   </g>
   <path class="fil2 str2" d="M323 102l0 31 -7 0 0 -20 -3 20 -5 0 -3 -20 0 20 -7 0 0 -31 11 0c0,2 0,5 1,7l1 8 2 -15 10 0zm17 0l5 31 -8 0 -1 -5 -3 0 0 5 -9 0 5 -31 11 0zm-4 20c0,-3 -1,-7 -1,-13 -1,6 -2,11 -2,13l3 0zm10 -20l6 0c4,0 6,1 8,1 1,0 2,1 3,2 1,1 1,3 1,6 0,2 0,4 -1,5 0,1 -1,1 -3,1 1,1 2,1 3,2 1,1 1,1 1,2 0,0 0,2 0,4l0 8 -7 0 0 -10c0,-2 0,-3 -1,-3 0,0 -1,-1 -2,-1l0 14 -8 0 0 -31zm8 6l0 7c1,0 2,0 2,-1 1,0 1,-1 1,-2l0 -2c0,-1 0,-1 -1,-2 0,0 -1,0 -2,0zm32 8l-8 0 0 -5c0,-2 0,-3 0,-3 0,-1 -1,-1 -1,-1 -1,0 -1,0 -2,1 0,0 0,1 0,3l0 14c0,2 0,3 0,3 1,1 1,1 2,1 0,0 1,0 1,-1 0,0 0,-1 0,-3l0 -4 8 0 0 1c0,3 0,6 -1,7 0,1 -1,3 -3,4 -1,1 -3,1 -5,1 -3,0 -5,0 -6,-1 -2,-1 -3,-2 -3,-4 -1,-1 -1,-4 -1,-7l0 -9c0,-2 0,-3 0,-5 0,-1 1,-2 2,-3 0,-1 1,-2 3,-2 1,-1 3,-1 4,-1 3,0 5,0 6,1 2,1 3,2 3,4 1,1 1,3 1,6l0 3zm17 -14l5 31 -9 0 0 -5 -3 0 -1 5 -8 0 4 -31 12 0zm-4 20c-1,-3 -1,-7 -2,-13 0,6 -1,11 -1,13l3 0zm17 -20l6 0c4,0 6,1 8,1 1,0 2,1 3,2 0,1 1,2 1,2 0,2 0,3 0,6l0 11c0,3 0,5 0,6 0,1 -1,1 -1,2 -1,1 -2,1 -3,1 -1,0 -2,0 -4,0l-10 0 0 -31zm8 6l0 20c1,0 2,0 2,-1 0,0 0,-1 0,-3l0 -12c0,-2 0,-3 0,-3 0,0 0,-1 0,-1 -1,0 -1,0 -2,0zm13 -6l14 0 0 7 -6 0 0 6 5 0 0 5 -5 0 0 7 6 0 0 6 -14 0 0 -31zm42 14l-8 0 0 -5c0,-2 0,-3 0,-3 0,-1 0,-1 -1,-1 -1,0 -1,0 -1,1 -1,0 -1,1 -1,3l0 14c0,2 0,3 1,3 0,1 0,1 1,1 0,0 1,0 1,-1 0,0 0,-1 0,-3l0 -4 8 0 0 1c0,3 0,6 0,7 -1,1 -2,3 -3,4 -2,1 -4,1 -6,1 -2,0 -4,0 -6,-1 -1,-1 -2,-2 -3,-4 0,-1 -1,-4 -1,-7l0 -9c0,-2 0,-3 1,-5 0,-1 0,-2 1,-3 1,-1 2,-2 3,-2 1,-1 3,-1 5,-1 2,0 4,0 6,1 1,1 2,2 3,4 0,1 0,3 0,6l0 3zm22 5c0,3 0,5 -1,6 0,2 0,3 -1,4 -1,1 -2,2 -3,2 -1,1 -3,1 -5,1 -1,0 -3,0 -4,-1 -1,0 -3,-1 -3,-2 -1,-1 -2,-2 -2,-4 0,-1 0,-3 0,-6l0 -6c0,-3 0,-5 0,-6 0,-2 1,-3 2,-4 0,-1 1,-2 3,-2 1,-1 3,-1 4,-1 2,0 3,0 5,1 1,0 2,1 3,2 1,1 1,2 1,4 1,1 1,3 1,6l0 6zm-8 -11c0,-1 -1,-2 -1,-2 0,-1 0,-1 -1,-1 0,0 0,0 -1,1 0,0 0,1 0,2l0 15c0,2 0,3 0,3 0,1 1,1 1,1 1,0 1,0 1,-1 0,0 1,-1 1,-3l0 -15zm29 -8l0 31 -7 0 -5 -14 0 14 -6 0 0 -31 6 0 5 14 0 -14 7 0zm3 0l13 0 0 7 -5 0 0 6 5 0 0 5 -5 0 0 13 -8 0 0 -31zm23 0l0 31 -8 0 0 -31 8 0zm18 0l4 31 -8 0 0 -5 -3 0 -1 5 -8 0 4 -31 12 0zm-5 20c0,-3 0,-7 -1,-13 -1,6 -1,11 -1,13l2 0zm29 -20l0 31 -8 0 -4 -14 0 14 -6 0 0 -31 6 0 5 14 0 -14 7 0zm13 32l0 0c0,0 1,1 2,1 0,1 1,1 1,2 0,1 -1,2 -2,2 0,1 -1,2 -2,2 -2,0 -4,-1 -4,-3l3 0c0,0 0,0 0,0 1,0 1,0 1,0 1,0 1,0 1,-1 0,0 -1,-1 -1,-1 0,0 0,0 -1,0l0 0 0 -2c-3,0 -4,-1 -6,-2 -1,-1 -2,-2 -2,-3 0,-2 0,-4 0,-7l0 -9c0,-2 0,-3 0,-5 0,-1 0,-2 1,-3 1,-1 2,-2 3,-2 2,-1 3,-1 5,-1 2,0 4,0 6,1 1,1 2,2 3,4 0,1 1,3 1,6l0 3 -8 0 0 -5c0,-2 -1,-3 -1,-3 0,-1 0,-1 -1,-1 -1,0 -1,0 -1,1 0,0 0,1 0,3l0 14c0,2 0,3 0,3 0,1 0,1 1,1 1,0 1,0 1,-1 0,0 1,-1 1,-3l0 -4 8 0 0 1c0,3 -1,5 -1,7 0,1 -1,2 -3,3 -1,1 -3,2 -5,2zm25 -32l5 31 -8 0 -1 -5 -3 0 0 5 -8 0 4 -31 11 0zm-4 20c0,-3 -1,-7 -1,-13 -1,6 -1,11 -2,13l3 0z"/>
  </g>
 </g>
</svg>
